<svg xmlns="http://www.w3.org/2000/svg" version="1.1" xmlns:xlink="http://www.w3.org/1999/xlink" xmlns:svgjs="http://svgjs.dev/svgjs" width="2000" height="2024" viewBox="0 0 2000 2024"><g transform="matrix(1,0,0,1,1.767868852458946,0.8194331983804659)"><svg viewBox="0 0 244 247" data-background-color="#f9f9f9" preserveAspectRatio="xMidYMid meet" height="2024" width="2000" xmlns="http://www.w3.org/2000/svg" xmlns:xlink="http://www.w3.org/1999/xlink"><g id="tight-bounds" transform="matrix(1,0,0,1,-0.21567999999999188,-0.09999999999999432)"><svg viewBox="0 0 244.43135999999998 247.2" height="247.2" width="244.43135999999998"><g><svg></svg></g><g><svg viewBox="0 0 244.43135999999998 247.2" height="247.2" width="244.43135999999998"><g transform="matrix(1,0,0,1,0,96.75762336282222)"><svg viewBox="0 0 244.43135999999998 53.684753274355565" height="53.684753274355565" width="244.43135999999998"><g><svg viewBox="0 0 244.43135999999998 53.684753274355565" height="53.684753274355565" width="244.43135999999998"><g><svg viewBox="0 0 244.43135999999998 53.684753274355565" height="53.684753274355565" width="244.43135999999998"><g id="textblocktransform"><svg viewBox="0 0 244.43135999999998 53.684753274355565" height="53.684753274355565" width="244.43135999999998" id="textblock"><g><svg viewBox="0 0 244.43135999999998 32.57932569206293" height="32.57932569206293" width="244.43135999999998"><g transform="matrix(1,0,0,1,0,0)"><svg width="244.43135999999998" viewBox="2.25 -37.5 294.73 37.7" height="32.57932569206293" data-palette-color="#030303"><g class="wordmark-text-0" data-fill-palette-color="primary" id="text-0"><path d="M24.05-35L31.85-4.9 40.15-35 43.4-35 33.15 0 30.1 0 22.55-29.8 14.3 0 11.2 0 2.25-35 5.4-35 13-5.05 21.25-35 24.05-35ZM52.15-12.3L52.15-11.5Q52.15-2.7 60.55-2.7L60.55-2.7Q64.1-2.7 67.05-3.65L67.05-3.65Q67.8-3.9 68.1-4.05L68.1-4.05 68.85-1.4Q67.1-0.35 62.5 0.1L62.5 0.1Q61.2 0.2 59.75 0.2L59.75 0.2Q55.55 0.2 52.75-1.9L52.75-1.9Q48.9-4.75 48.9-11.4 48.9-18.05 52.37-21.63 55.85-25.2 60.8-25.2 65.75-25.2 68.25-22L68.25-22Q70.15-19.45 70.15-15.25L70.15-15.25Q70.15-14.25 70.05-13.15L70.05-13.15 52.2-13.15Q52.15-12.75 52.15-12.3L52.15-12.3ZM61-22.1L61-22.1Q57.9-22.1 55.7-20.23 53.5-18.35 52.65-15.4L52.65-15.4 67.2-15.4Q66.95-20.95 62.9-21.85L62.9-21.85Q62-22.1 61-22.1ZM75.4-19.9L74.5-22.3Q79.95-25 84.05-25.15L84.05-25.15Q87.3-25.15 89.07-24.33 90.85-23.5 91.95-22.03 93.05-20.55 93.05-17.9L93.05-17.9 93.05 0 89.8 0 89.8-1.9Q82.95 0.2 81 0.2L81 0.2Q80.9 0.2 80.85 0.2L80.85 0.2Q76.35 0.2 74.7-2.55L74.7-2.55Q74.1-3.55 74.02-4.5 73.95-5.45 73.95-6.1L73.95-6.1Q73.95-7.9 75.35-9.33 76.75-10.75 78.7-11.25L78.7-11.25Q82-12.1 89.8-12.75L89.8-12.75 89.8-16.8Q89.8-22.25 84.1-22.25L84.1-22.25Q80.1-22.25 75.4-19.9L75.4-19.9ZM77-5.7L77-5.7Q77-2.1 81.95-2.1L81.95-2.1Q85.9-2.1 89.8-3.8L89.8-3.8 89.8-10.95Q82-9.85 80.15-9.25L80.15-9.25Q77-8.25 77-5.7ZM108.89-3.6L109.49-0.9Q108.59 0 106.24 0L106.24 0Q102.94 0 101.79-1.7L101.79-1.7Q99.84-3.55 99.84-6.7L99.84-6.7 99.84-22.1 97.04-22.1 97.49-25 99.84-25 99.84-29.95 103.09-30.25 103.09-25 108.89-25 108.89-22.1 103.09-22.1 103.09-5.9Q103.09-3 106.09-3L106.09-3Q107.39-3 108.89-3.6L108.89-3.6ZM118.39-37.5L118.39-22.15Q122.34-25 125.99-25.15L125.99-25.15Q129.09-25.15 130.74-24.4 132.39-23.65 133.44-22.28 134.49-20.9 134.49-18.4L134.49-18.4 134.49 0 131.24 0 131.24-17.55Q131.24-19.4 130.44-20.4L130.44-20.4Q128.84-22.25 125.54-22.25L125.54-22.25Q122.29-22.1 118.39-20.15L118.39-20.15 118.39 0 115.14 0 115.14-37.25 118.39-37.5ZM142.49-12.3L142.49-11.5Q142.49-2.7 150.89-2.7L150.89-2.7Q154.44-2.7 157.39-3.65L157.39-3.65Q158.14-3.9 158.44-4.05L158.44-4.05 159.19-1.4Q157.44-0.35 152.84 0.1L152.84 0.1Q151.54 0.2 150.09 0.2L150.09 0.2Q145.89 0.2 143.09-1.9L143.09-1.9Q139.24-4.75 139.24-11.4 139.24-18.05 142.71-21.63 146.19-25.2 151.14-25.2 156.09-25.2 158.59-22L158.59-22Q160.49-19.45 160.49-15.25L160.49-15.25Q160.49-14.25 160.39-13.15L160.39-13.15 142.54-13.15Q142.49-12.75 142.49-12.3L142.49-12.3ZM151.34-22.1L151.34-22.1Q148.24-22.1 146.04-20.23 143.84-18.35 142.99-15.4L142.99-15.4 157.54-15.4Q157.29-20.95 153.24-21.85L153.24-21.85Q152.34-22.1 151.34-22.1ZM179.64-24.5L178.34-21.5Q177.54-21.95 176.64-21.95 175.74-21.95 175.64-21.9L175.64-21.9Q173.74-21.9 171.81-20.53 169.89-19.15 168.54-17.45L168.54-17.45 168.54 0 165.29 0 165.29-25 168.54-25.25 168.54-19.65Q170.39-22 171.69-22.95L171.69-22.95Q174.09-24.75 176.29-24.85L176.29-24.85Q176.59-24.9 177.39-24.9 178.19-24.9 179.64-24.5L179.64-24.5Z" fill="#000000" data-fill-palette-color="primary"></path><path d="M218.64-35L226.44-4.9 234.74-35 237.99-35 227.74 0 224.69 0 217.14-29.8 208.89 0 205.79 0 196.84-35 199.99-35 207.59-5.05 215.84-35 218.64-35ZM244.79-25L248.04-25.25 248.04 0 244.79 0 244.79-25ZM246.29-31.7Q245.29-31.7 244.76-32.35 244.24-33 244.24-34 244.24-35 244.81-35.63 245.39-36.25 246.39-36.25 247.39-36.25 248.01-35.63 248.64-35 248.64-33.9 248.64-32.8 247.96-32.25 247.29-31.7 246.29-31.7ZM269.63-24.5L268.83-21.7Q267.03-22.3 263.93-22.3 260.83-22.3 259.13-21.2 257.43-20.1 257.43-18.48 257.43-16.85 258.43-16.1 259.43-15.35 260.93-14.83 262.43-14.3 264.21-13.8 265.98-13.3 267.48-12.5L267.48-12.5Q270.98-10.7 270.98-7.15 270.98-3.6 268.56-1.7 266.13 0.2 261.48 0.2L261.48 0.2Q259.13 0.2 256.96-0.28 254.78-0.75 253.63-1.6L253.63-1.6 254.73-4.25Q255.88-3.25 259.38-2.8L259.38-2.8Q260.48-2.65 261.63-2.65L261.63-2.65Q264.23-2.65 265.98-3.73 267.73-4.8 267.73-7L267.73-7Q267.73-8.5 266.73-9.35 265.73-10.2 264.23-10.78 262.73-11.35 260.96-11.8 259.18-12.25 257.68-12.98 256.18-13.7 255.18-14.88 254.18-16.05 254.18-18.05L254.18-18.05Q254.18-21.3 256.68-23.25 259.18-25.2 263.38-25.2L263.38-25.2Q264.43-25.2 265.53-25.08 266.63-24.95 267.53-24.85L267.53-24.85 269.63-24.5ZM278.98-12.3L278.98-11.5Q278.98-2.7 287.38-2.7L287.38-2.7Q290.93-2.7 293.88-3.65L293.88-3.65Q294.63-3.9 294.93-4.05L294.93-4.05 295.68-1.4Q293.93-0.35 289.33 0.1L289.33 0.1Q288.03 0.2 286.58 0.2L286.58 0.2Q282.38 0.2 279.58-1.9L279.58-1.9Q275.73-4.75 275.73-11.4 275.73-18.05 279.21-21.63 282.68-25.2 287.63-25.2 292.58-25.2 295.08-22L295.08-22Q296.98-19.45 296.98-15.25L296.98-15.25Q296.98-14.25 296.88-13.15L296.88-13.15 279.03-13.15Q278.98-12.75 278.98-12.3L278.98-12.3ZM287.83-22.1L287.83-22.1Q284.73-22.1 282.53-20.23 280.33-18.35 279.48-15.4L279.48-15.4 294.03-15.4Q293.78-20.95 289.73-21.85L289.73-21.85Q288.83-22.1 287.83-22.1Z" fill="#000000" data-fill-palette-color="primary"></path></g></svg></g></svg></g><g transform="matrix(1,0,0,1,26.887449599999997,40.27052258414238)"><svg viewBox="0 0 190.6564608 13.414230690213186" height="13.414230690213186" width="190.6564608"><g transform="matrix(1,0,0,1,0,0)"><svg width="190.6564608" viewBox="6.1 -37.5 710.5799999999999 50" height="13.414230690213186" data-palette-color="#030303"><path d="M17.75-3.95L14.4-3.95 13.85 0 25.95 0 26.5-3.95 22.85-3.95 24.15-13.45Q27.4-17.85 30.58-22.25 33.75-26.65 37-31.05L37-31.05 42.05-31.05 42.6-35 30.5-35 29.95-31.05 31.9-31.05 22.95-18.85 22.15-17.3 22.1-17.3 21.75-18.85Q20.35-21.9 18.98-24.95 17.6-28 16.2-31.05L16.2-31.05 18.2-31.05 18.75-35 6.65-35 6.1-31.05 11.15-31.05Q13.1-26.65 15.08-22.28 17.05-17.9 19.05-13.5L19.05-13.5 17.75-3.95ZM42.55-9.4L42.55-9.4Q42.25-7.35 42.8-5.58 43.35-3.8 44.55-2.45L44.55-2.45Q45.7-1.1 47.4-0.33 49.1 0.45 51.2 0.45L51.2 0.45Q53.3 0.45 55.25-0.33 57.2-1.1 58.75-2.45L58.75-2.45Q60.25-3.8 61.27-5.58 62.3-7.35 62.6-9.4L62.6-9.4Q62.9-11.4 62.37-13.2 61.85-15 60.7-16.35L60.7-16.35Q59.5-17.65 57.77-18.43 56.05-19.2 53.95-19.2L53.95-19.2Q51.85-19.2 49.92-18.43 48-17.65 46.45-16.35L46.45-16.35Q44.9-15 43.87-13.2 42.85-11.4 42.55-9.4ZM46.7-9.35L46.7-9.35Q46.85-10.55 47.45-11.6 48.05-12.65 48.95-13.45L48.95-13.45Q49.85-14.25 50.95-14.7 52.05-15.15 53.25-15.15L53.25-15.15Q54.45-15.15 55.45-14.7 56.45-14.25 57.15-13.45L57.15-13.45Q57.8-12.65 58.1-11.6 58.4-10.55 58.25-9.35L58.25-9.35Q58.1-8.15 57.5-7.1 56.9-6.05 56-5.3L56-5.3Q55.1-4.5 53.97-4.05 52.85-3.6 51.65-3.6L51.65-3.6Q50.45-3.6 49.47-4.05 48.5-4.5 47.85-5.3L47.85-5.3Q47.15-6.05 46.85-7.1 46.55-8.15 46.7-9.35ZM82.9-2.55L82.55 0 89.8 0 90.3-3.5 87.2-3.5 89.3-18.75 81.84-18.75 81.3-14.8 84.59-14.8 83.9-9.65Q83.7-8.35 83-7.25 82.3-6.15 81.3-5.35L81.3-5.35Q80.3-4.55 79.05-4.1 77.8-3.65 76.5-3.65L76.5-3.65Q74.59-3.75 73.87-4.73 73.15-5.7 73.25-7.05L73.25-7.05 74.84-18.75 67.4-18.75 66.84-14.8 70.15-14.8 68.8-5.15Q68.55-2.65 70.05-1.1 71.55 0.45 74.5 0.45L74.5 0.45Q77.2 0.45 79.59-0.98 82-2.4 83.34-4.8L83.34-4.8 82.9-2.55ZM97.59-3.95L93.79-3.95 93.24 0 104.34 0 104.89-3.95 101.74-3.95 102.44-9.1Q102.64-10.4 103.27-11.5 103.89-12.6 104.89-13.4L104.89-13.4Q105.89-14.2 107.22-14.65 108.54-15.1 110.04-15.1L110.04-15.1 110.89-19.2Q110.14-19.2 109.12-18.85 108.09-18.5 106.99-17.85L106.99-17.85Q105.89-17.15 104.82-16.18 103.74-15.2 102.99-13.95L102.99-13.95Q103.09-15.15 103.12-16.13 103.14-17.1 103.24-18.3L103.24-18.3 103.29-18.75 96.34-18.75 95.79-14.8 99.09-14.8 97.59-3.95ZM129.64-4L127.29-4 126.74 0 135.54 0Q140.84 0 144.74-1.63 148.64-3.25 151.29-5.8L151.29-5.8Q153.94-8.3 155.39-11.4 156.84-14.5 157.29-17.45L157.29-17.45Q157.84-21.5 156.89-24.73 155.94-27.95 153.89-30.25L153.89-30.25Q151.79-32.55 148.76-33.77 145.74-35 142.14-35L142.14-35 131.64-35 131.09-31.05 133.44-31.05 129.64-4ZM133.79-4L137.59-31.05 141.09-31.05Q144.04-31.05 146.44-30.1 148.84-29.15 150.49-27.4L150.49-27.4Q152.14-25.6 152.86-23.1 153.59-20.6 153.14-17.5L153.14-17.5Q152.69-14.4 151.26-11.93 149.84-9.45 147.74-7.7L147.74-7.7Q145.59-5.9 142.91-4.95 140.24-4 137.29-4L137.29-4 133.79-4ZM159.69-9.35L159.69-9.35Q159.39-7.35 159.94-5.58 160.49-3.8 161.64-2.45L161.64-2.45Q162.78-1.1 164.53-0.33 166.28 0.45 168.39 0.45L168.39 0.45Q169.84 0.45 171.03 0.13 172.24-0.2 173.09-0.65L173.09-0.65Q173.94-1.05 174.44-1.45 174.94-1.85 175.03-2L175.03-2Q174.99-1.75 174.96-1.55 174.94-1.35 174.89-1L174.89-1 174.78 0 182.24 0 182.79-3.95 178.99-3.95 181.04-18.75 177.59-18.75Q177.49-18.15 177.34-17.55 177.19-16.95 177.09-16.4L177.09-16.4Q177.09-16.55 176.66-17.07 176.24-17.6 175.44-18.1L175.44-18.1Q174.64-18.55 173.56-18.88 172.49-19.2 171.14-19.2L171.14-19.2Q169.03-19.2 167.09-18.4 165.14-17.6 163.59-16.25L163.59-16.25Q162.03-14.9 161.01-13.1 159.99-11.3 159.69-9.35ZM163.89-9.4L163.89-9.4Q164.03-10.65 164.61-11.7 165.19-12.75 166.09-13.5L166.09-13.5Q166.99-14.3 168.11-14.7 169.24-15.1 170.53-15.1L170.53-15.1Q171.78-15.1 172.81-14.7 173.84-14.3 174.49-13.55L174.49-13.55Q175.19-12.8 175.49-11.73 175.79-10.65 175.59-9.35L175.59-9.35Q175.44-8.15 174.86-7.1 174.28-6.05 173.39-5.3L173.39-5.3Q172.49-4.5 171.36-4.05 170.24-3.6 168.94-3.6L168.94-3.6Q167.84-3.6 166.94-3.93 166.03-4.25 165.39-4.8L165.39-4.8Q164.49-5.6 164.09-6.8 163.69-8 163.89-9.4ZM189.73-3.95L186.23-3.95 185.68 0 196.78 0 197.33-3.95 193.88-3.95 195.93-18.75 188.28-18.75 187.73-14.8 191.23-14.8 189.73-3.95ZM192.38-26L192.38-26Q192.18-24.85 192.88-24.13 193.58-23.4 194.58-23.4L194.58-23.4Q195.53-23.4 196.43-24.13 197.33-24.85 197.53-26L197.53-26Q197.68-27.15 196.98-27.9 196.28-28.65 195.33-28.65L195.33-28.65Q194.33-28.65 193.43-27.9 192.53-27.15 192.38-26ZM204.63-3.95L200.83-3.95 200.28 0 211.38 0 211.93-3.95 208.78-3.95 213.48-37.5 206.03-37.5 205.48-33.55 208.78-33.55 204.63-3.95ZM222.78 8.55L218.28 8.55 217.73 12.5 228.83 12.5 229.38 8.55 226.93 8.55Q230.68 2.65 234.43-3.13 238.18-8.9 241.93-14.8L241.93-14.8 246.03-14.8 246.58-18.75 235.13-18.75 234.58-14.8 237.68-14.8Q235.83-12.05 234-9.28 232.18-6.5 230.88-3.7L230.88-3.7Q230.33-6.5 229.28-9.28 228.23-12.05 227.13-14.8L227.13-14.8 229.78-14.8 230.33-18.75 219.23-18.75 218.68-14.8 222.88-14.8Q224.23-11.05 225.58-7.4 226.93-3.75 228.28 0L228.28 0Q226.88 2.1 225.5 4.25 224.13 6.4 222.78 8.55L222.78 8.55ZM277.92-35L265.82-35 265.27-31.05 269.62-31.05Q271.97-22.8 274.27-14.73 276.57-6.65 278.92 1.6L278.92 1.6Q281.92-3.8 285.55-9.85 289.17-15.9 291.37-21L291.37-21 291.62-19.25 297.57 1.6Q302.17-6.65 306.77-14.73 311.37-22.8 315.97-31.05L315.97-31.05 320.67-31.05 321.22-35 309.12-35 308.57-31.05 311.77-31.05Q308.72-25.55 304.32-17.85 299.92-10.15 299.52-9.25L299.52-9.25 298.82-7.6 298.62-9.25Q297.02-14.7 295.52-20.15 294.02-25.6 292.42-31.05L292.42-31.05 295.77-31.05 296.32-35 284.22-35 283.67-31.05 288.27-31.05Q288.67-29.6 289.1-28.18 289.52-26.75 289.92-25.3L289.92-25.3Q287.52-20.95 284.77-16.2 282.02-11.45 280.17-7.6L280.17-7.6 279.97-9.25Q278.37-14.7 276.87-20.15 275.37-25.6 273.77-31.05L273.77-31.05 277.37-31.05 277.92-35ZM331.77-15.15L331.77-15.15Q332.82-15.15 333.65-14.63 334.47-14.1 335.02-13.25L335.02-13.25Q332.57-12.4 330.12-11.53 327.67-10.65 325.17-9.8L325.17-9.8Q325.37-10.95 325.95-11.93 326.52-12.9 327.37-13.6L327.37-13.6Q328.22-14.3 329.35-14.73 330.47-15.15 331.77-15.15ZM339.97-10.9L339.97-10.9Q339.77-12.7 339.15-14.23 338.52-15.75 337.57-16.85L337.57-16.85Q336.57-17.95 335.25-18.57 333.92-19.2 332.37-19.2L332.37-19.2Q330.27-19.2 328.35-18.43 326.42-17.65 324.87-16.35L324.87-16.35Q323.32-15 322.3-13.2 321.27-11.4 320.97-9.4L320.97-9.4Q320.67-7.35 321.22-5.58 321.77-3.8 322.97-2.45L322.97-2.45Q324.12-1.1 325.82-0.33 327.52 0.45 329.62 0.45L329.62 0.45Q331.52 0.45 333.2-0.25 334.87-0.95 336.32-2.2L336.32-2.2Q335.77-2.95 335.25-3.7 334.72-4.45 334.17-5.2L334.17-5.2Q333.37-4.45 332.35-4.03 331.32-3.6 330.17-3.6L330.17-3.6Q328.62-3.6 327.47-4.23 326.32-4.85 325.72-5.9L325.72-5.9Q329.32-7.15 332.87-8.4 336.42-9.65 339.97-10.9ZM343.47-9.35L343.47-9.35Q343.17-7.35 343.72-5.58 344.27-3.8 345.42-2.45L345.42-2.45Q346.57-1.1 348.32-0.33 350.07 0.45 352.17 0.45L352.17 0.45Q353.62 0.45 354.82 0.13 356.02-0.2 356.87-0.65L356.87-0.65Q357.72-1.05 358.22-1.45 358.72-1.85 358.82-2L358.82-2Q358.77-1.75 358.74-1.55 358.72-1.35 358.67-1L358.67-1 358.57 0 366.02 0 366.57-3.95 362.77-3.95 364.82-18.75 361.37-18.75Q361.27-18.15 361.12-17.55 360.97-16.95 360.87-16.4L360.87-16.4Q360.87-16.55 360.44-17.07 360.02-17.6 359.22-18.1L359.22-18.1Q358.42-18.55 357.34-18.88 356.27-19.2 354.92-19.2L354.92-19.2Q352.82-19.2 350.87-18.4 348.92-17.6 347.37-16.25L347.37-16.25Q345.82-14.9 344.79-13.1 343.77-11.3 343.47-9.35ZM347.67-9.4L347.67-9.4Q347.82-10.65 348.39-11.7 348.97-12.75 349.87-13.5L349.87-13.5Q350.77-14.3 351.89-14.7 353.02-15.1 354.32-15.1L354.32-15.1Q355.57-15.1 356.59-14.7 357.62-14.3 358.27-13.55L358.27-13.55Q358.97-12.8 359.27-11.73 359.57-10.65 359.37-9.35L359.37-9.35Q359.22-8.15 358.64-7.1 358.07-6.05 357.17-5.3L357.17-5.3Q356.27-4.5 355.14-4.05 354.02-3.6 352.72-3.6L352.72-3.6Q351.62-3.6 350.72-3.93 349.82-4.25 349.17-4.8L349.17-4.8Q348.27-5.6 347.87-6.8 347.47-8 347.67-9.4ZM382.12-30.95L377.97-30.95 376.27-18.75 372.07-18.75 371.52-14.7 375.72-14.7 373.67 0 381.57 0 382.12-3.95 378.37-3.95 379.87-14.7 384.77-14.7 385.32-18.75 380.42-18.75 382.12-30.95ZM405.01-3.95L401.16-3.95 400.61 0 411.71 0 412.26-3.95 409.16-3.95 410.51-13.6Q410.76-16.1 409.26-17.65 407.76-19.2 404.81-19.2L404.81-19.2Q401.96-19.05 399.69-17.73 397.41-16.4 395.96-13.95L395.96-13.95 396.41-16.2 399.41-37.5 391.46-37.5 390.91-33.55 394.71-33.55 390.56-3.95 386.76-3.95 386.21 0 397.31 0 397.86-3.95 394.71-3.95 395.41-9.1Q395.61-10.4 396.31-11.5 397.01-12.6 398.01-13.4L398.01-13.4Q399.01-14.2 400.26-14.65 401.51-15.1 402.81-15.1L402.81-15.1Q404.71-15 405.44-14.03 406.16-13.05 406.06-11.7L406.06-11.7 405.01-3.95ZM427.36-15.15L427.36-15.15Q428.41-15.15 429.24-14.63 430.06-14.1 430.61-13.25L430.61-13.25Q428.16-12.4 425.71-11.53 423.26-10.65 420.76-9.8L420.76-9.8Q420.96-10.95 421.54-11.93 422.11-12.9 422.96-13.6L422.96-13.6Q423.81-14.3 424.94-14.73 426.06-15.15 427.36-15.15ZM435.56-10.9L435.56-10.9Q435.36-12.7 434.74-14.23 434.11-15.75 433.16-16.85L433.16-16.85Q432.16-17.95 430.84-18.57 429.51-19.2 427.96-19.2L427.96-19.2Q425.86-19.2 423.94-18.43 422.01-17.65 420.46-16.35L420.46-16.35Q418.91-15 417.89-13.2 416.86-11.4 416.56-9.4L416.56-9.4Q416.26-7.35 416.81-5.58 417.36-3.8 418.56-2.45L418.56-2.45Q419.71-1.1 421.41-0.33 423.11 0.45 425.21 0.45L425.21 0.45Q427.11 0.45 428.79-0.25 430.46-0.95 431.91-2.2L431.91-2.2Q431.36-2.95 430.84-3.7 430.31-4.45 429.76-5.2L429.76-5.2Q428.96-4.45 427.94-4.03 426.91-3.6 425.76-3.6L425.76-3.6Q424.21-3.6 423.06-4.23 421.91-4.85 421.31-5.9L421.31-5.9Q424.91-7.15 428.46-8.4 432.01-9.65 435.56-10.9ZM442.06-3.95L438.26-3.95 437.71 0 448.81 0 449.36-3.95 446.21-3.95 446.91-9.1Q447.11-10.4 447.73-11.5 448.36-12.6 449.36-13.4L449.36-13.4Q450.36-14.2 451.68-14.65 453.01-15.1 454.51-15.1L454.51-15.1 455.36-19.2Q454.61-19.2 453.58-18.85 452.56-18.5 451.46-17.85L451.46-17.85Q450.36-17.15 449.28-16.18 448.21-15.2 447.46-13.95L447.46-13.95Q447.56-15.15 447.58-16.13 447.61-17.1 447.71-18.3L447.71-18.3 447.76-18.75 440.81-18.75 440.26-14.8 443.56-14.8 442.06-3.95ZM498.55-30.35L498.1-27.3 502.05-27.3 502.85-32.9Q501-34.1 498.8-34.75 496.6-35.4 494.05-35.4L494.05-35.4Q490.35-35.4 486.9-33.98 483.45-32.55 480.7-30.15L480.7-30.15Q477.95-27.7 476.08-24.43 474.2-21.15 473.7-17.45L473.7-17.45Q473.15-13.75 474.1-10.5 475.05-7.25 477.15-4.85L477.15-4.85Q479.25-2.4 482.3-1 485.35 0.4 489.05 0.4L489.05 0.4Q491.6 0.4 493.95-0.28 496.3-0.95 498.5-2.1L498.5-2.1 496.7-5.4Q495-4.5 493.23-4.03 491.45-3.55 489.6-3.55L489.6-3.55Q486.75-3.55 484.43-4.65 482.1-5.75 480.5-7.65L480.5-7.65Q478.9-9.5 478.18-12.05 477.45-14.6 477.85-17.45L477.85-17.45Q478.25-20.3 479.68-22.85 481.1-25.4 483.25-27.35L483.25-27.35Q485.35-29.25 488-30.35 490.65-31.45 493.5-31.45L493.5-31.45Q494.85-31.45 496.13-31.18 497.4-30.9 498.55-30.35L498.55-30.35ZM503.05-9.4L503.05-9.4Q502.75-7.35 503.3-5.58 503.85-3.8 505.05-2.45L505.05-2.45Q506.2-1.1 507.9-0.33 509.6 0.45 511.7 0.45L511.7 0.45Q513.8 0.45 515.75-0.33 517.7-1.1 519.25-2.45L519.25-2.45Q520.75-3.8 521.78-5.58 522.8-7.35 523.1-9.4L523.1-9.4Q523.4-11.4 522.88-13.2 522.35-15 521.2-16.35L521.2-16.35Q520-17.65 518.28-18.43 516.55-19.2 514.45-19.2L514.45-19.2Q512.35-19.2 510.43-18.43 508.5-17.65 506.95-16.35L506.95-16.35Q505.4-15 504.38-13.2 503.35-11.4 503.05-9.4ZM507.2-9.35L507.2-9.35Q507.35-10.55 507.95-11.6 508.55-12.65 509.45-13.45L509.45-13.45Q510.35-14.25 511.45-14.7 512.55-15.15 513.75-15.15L513.75-15.15Q514.95-15.15 515.95-14.7 516.95-14.25 517.65-13.45L517.65-13.45Q518.3-12.65 518.6-11.6 518.9-10.55 518.75-9.35L518.75-9.35Q518.6-8.15 518-7.1 517.4-6.05 516.5-5.3L516.5-5.3Q515.6-4.5 514.48-4.05 513.35-3.6 512.15-3.6L512.15-3.6Q510.95-3.6 509.98-4.05 509-4.5 508.35-5.3L508.35-5.3Q507.65-6.05 507.35-7.1 507.05-8.15 507.2-9.35ZM558.5-3.95L554.7-3.95 554.15 0 565.25 0 565.8-3.95 562.65-3.95 564-13.6Q564.25-16.1 562.75-17.65 561.25-19.2 558.3-19.2L558.3-19.2Q555.55-19.1 553.27-17.8 551-16.5 549.55-14.2L549.55-14.2Q549.6-16.45 548.1-17.82 546.6-19.2 543.85-19.2L543.85-19.2Q541-19.1 538.7-17.73 536.4-16.35 535-13.95L535-13.95Q535.1-15.15 535.12-16.13 535.15-17.1 535.25-18.3L535.25-18.3 535.3-18.75 528.35-18.75 527.8-14.8 531.1-14.8 529.6-3.95 525.8-3.95 525.25 0 536.35 0 536.9-3.95 533.75-3.95 534.45-9.1Q534.65-10.4 535.35-11.5 536.05-12.6 537.05-13.4L537.05-13.4Q538.05-14.2 539.3-14.65 540.55-15.1 541.85-15.1L541.85-15.1Q543.75-15 544.47-14.03 545.2-13.05 545.1-11.7L545.1-11.7 544.05-3.95 540.25-3.95 539.7 0 550.8 0 551.35-3.95 548.2-3.95 548.9-9.1Q549.1-10.4 549.8-11.5 550.5-12.6 551.5-13.4L551.5-13.4Q552.5-14.2 553.75-14.65 555-15.1 556.3-15.1L556.3-15.1Q558.2-15 558.92-14.03 559.65-13.05 559.55-11.7L559.55-11.7 558.5-3.95ZM570.75 8.55L567.39 8.55 566.95 12.5 578 12.5 578.5 8.55 574.89 8.55 576.14-0.25Q576.2-0.65 576.22-1.05 576.25-1.45 576.2-1.7L576.2-1.7Q576.5-1.1 578-0.33 579.5 0.45 581.89 0.45L581.89 0.45Q584 0.45 585.95-0.33 587.89-1.1 589.45-2.45L589.45-2.45Q591-3.8 592.02-5.6 593.04-7.4 593.35-9.4L593.35-9.4Q593.6-11.4 593.07-13.18 592.54-14.95 591.39-16.3L591.39-16.3Q590.2-17.65 588.47-18.43 586.75-19.2 584.64-19.2L584.64-19.2Q583.35-19.2 582.17-18.82 581-18.45 580.1-18L580.1-18Q579.14-17.5 578.54-17.03 577.95-16.55 577.89-16.4L577.89-16.4Q577.89-17 577.95-17.6 578-18.2 578.04-18.75L578.04-18.75 570.89-18.75 570.25-14.8 574.04-14.8 570.75 8.55ZM589.14-9.4L589.14-9.4Q588.95-8.2 588.37-7.13 587.79-6.05 586.89-5.3L586.89-5.3Q586-4.5 584.87-4.05 583.75-3.6 582.45-3.6L582.45-3.6Q581.14-3.6 580.14-4.05 579.14-4.5 578.5-5.3L578.5-5.3Q577.79-6.05 577.52-7.13 577.25-8.2 577.45-9.4L577.45-9.4Q577.6-10.65 578.17-11.7 578.75-12.75 579.64-13.5L579.64-13.5Q580.54-14.3 581.67-14.73 582.79-15.15 584.1-15.15L584.1-15.15Q585.39-15.15 586.42-14.73 587.45-14.3 588.1-13.55L588.1-13.55Q588.75-12.8 589.04-11.73 589.35-10.65 589.14-9.4ZM597.49-9.35L597.49-9.35Q597.19-7.35 597.74-5.58 598.29-3.8 599.44-2.45L599.44-2.45Q600.59-1.1 602.34-0.33 604.09 0.45 606.19 0.45L606.19 0.45Q607.64 0.45 608.84 0.13 610.04-0.2 610.89-0.65L610.89-0.65Q611.74-1.05 612.24-1.45 612.74-1.85 612.84-2L612.84-2Q612.79-1.75 612.77-1.55 612.74-1.35 612.69-1L612.69-1 612.59 0 620.04 0 620.59-3.95 616.79-3.95 618.84-18.75 615.39-18.75Q615.29-18.15 615.14-17.55 614.99-16.95 614.89-16.4L614.89-16.4Q614.89-16.55 614.47-17.07 614.04-17.6 613.24-18.1L613.24-18.1Q612.44-18.55 611.37-18.88 610.29-19.2 608.94-19.2L608.94-19.2Q606.84-19.2 604.89-18.4 602.94-17.6 601.39-16.25L601.39-16.25Q599.84-14.9 598.82-13.1 597.79-11.3 597.49-9.35ZM601.69-9.4L601.69-9.4Q601.84-10.65 602.42-11.7 602.99-12.75 603.89-13.5L603.89-13.5Q604.79-14.3 605.92-14.7 607.04-15.1 608.34-15.1L608.34-15.1Q609.59-15.1 610.62-14.7 611.64-14.3 612.29-13.55L612.29-13.55Q612.99-12.8 613.29-11.73 613.59-10.65 613.39-9.35L613.39-9.35Q613.24-8.15 612.67-7.1 612.09-6.05 611.19-5.3L611.19-5.3Q610.29-4.5 609.17-4.05 608.04-3.6 606.74-3.6L606.74-3.6Q605.64-3.6 604.74-3.93 603.84-4.25 603.19-4.8L603.19-4.8Q602.29-5.6 601.89-6.8 601.49-8 601.69-9.4ZM642.29-3.95L638.44-3.95 637.89 0 648.99 0 649.54-3.95 646.44-3.95 647.79-13.6Q648.04-16.1 646.54-17.65 645.04-19.2 642.09-19.2L642.09-19.2Q639.39-19.2 636.99-17.78 634.59-16.35 633.24-13.95L633.24-13.95Q633.34-15.15 633.36-16.13 633.39-17.1 633.49-18.3L633.49-18.3 633.54-18.75 626.59-18.75 626.04-14.8 629.34-14.8 627.84-3.95 624.04-3.95 623.49 0 634.59 0 635.14-3.95 631.99-3.95 632.69-9.1Q632.89-10.4 633.59-11.5 634.29-12.6 635.29-13.4L635.29-13.4Q636.29-14.2 637.54-14.65 638.79-15.1 640.09-15.1L640.09-15.1Q641.99-15 642.71-14.03 643.44-13.05 643.34-11.7L643.34-11.7 642.29-3.95ZM656.54-3.95L653.04-3.95 652.49 0 663.59 0 664.14-3.95 660.69-3.95 662.74-18.75 655.09-18.75 654.54-14.8 658.04-14.8 656.54-3.95ZM659.19-26L659.19-26Q658.99-24.85 659.69-24.13 660.39-23.4 661.39-23.4L661.39-23.4Q662.34-23.4 663.24-24.13 664.14-24.85 664.34-26L664.34-26Q664.49-27.15 663.79-27.9 663.09-28.65 662.14-28.65L662.14-28.65Q661.14-28.65 660.24-27.9 659.34-27.15 659.19-26ZM668.43-9.4L668.43-9.4Q668.13-7.35 668.68-5.58 669.23-3.8 670.43-2.45L670.43-2.45Q671.58-1.1 673.28-0.33 674.98 0.45 677.08 0.45L677.08 0.45Q679.18 0.45 681.13-0.33 683.08-1.1 684.63-2.45L684.63-2.45Q686.13-3.8 687.16-5.58 688.18-7.35 688.48-9.4L688.48-9.4Q688.78-11.4 688.26-13.2 687.73-15 686.58-16.35L686.58-16.35Q685.38-17.65 683.66-18.43 681.93-19.2 679.83-19.2L679.83-19.2Q677.73-19.2 675.81-18.43 673.88-17.65 672.33-16.35L672.33-16.35Q670.78-15 669.76-13.2 668.73-11.4 668.43-9.4ZM672.58-9.35L672.58-9.35Q672.73-10.55 673.33-11.6 673.93-12.65 674.83-13.45L674.83-13.45Q675.73-14.25 676.83-14.7 677.93-15.15 679.13-15.15L679.13-15.15Q680.33-15.15 681.33-14.7 682.33-14.25 683.03-13.45L683.03-13.45Q683.68-12.65 683.98-11.6 684.28-10.55 684.13-9.35L684.13-9.35Q683.98-8.15 683.38-7.1 682.78-6.05 681.88-5.3L681.88-5.3Q680.98-4.5 679.86-4.05 678.73-3.6 677.53-3.6L677.53-3.6Q676.33-3.6 675.36-4.05 674.38-4.5 673.73-5.3L673.73-5.3Q673.03-6.05 672.73-7.1 672.43-8.15 672.58-9.35ZM709.43-3.95L705.58-3.95 705.03 0 716.13 0 716.68-3.95 713.58-3.95 714.93-13.6Q715.18-16.1 713.68-17.65 712.18-19.2 709.23-19.2L709.23-19.2Q706.53-19.2 704.13-17.78 701.73-16.35 700.38-13.95L700.38-13.95Q700.48-15.15 700.51-16.13 700.53-17.1 700.63-18.3L700.63-18.3 700.68-18.75 693.73-18.75 693.18-14.8 696.48-14.8 694.98-3.95 691.18-3.95 690.63 0 701.73 0 702.28-3.95 699.13-3.95 699.83-9.1Q700.03-10.4 700.73-11.5 701.43-12.6 702.43-13.4L702.43-13.4Q703.43-14.2 704.68-14.65 705.93-15.1 707.23-15.1L707.23-15.1Q709.13-15 709.86-14.03 710.58-13.05 710.48-11.7L710.48-11.7 709.43-3.95Z" opacity="1" transform="matrix(1,0,0,1,0,0)" fill="#000000" class="slogan-text-1" data-fill-palette-color="secondary" id="text-1"></path></svg></g></svg></g></svg></g></svg></g><g></g></svg></g></svg></g><path d="M0 90.758L0 1 244.431 1 244.431 90.758 241.493 90.758 241.493 3.938 2.938 3.938 2.938 90.758 0 90.758M0 156.442L0 246.2 244.431 246.2 244.431 156.442 241.493 156.442 241.493 243.262 2.938 243.262 2.938 156.442 0 156.442" fill="#000000" stroke="transparent" data-fill-palette-color="tertiary"></path></svg></g><defs></defs></svg><rect width="244.43135999999998" height="247.2" fill="none" stroke="none" visibility="hidden"></rect></g></svg></g></svg>