<?xml version="1.0" ?>
<!-- Uploaded to: SVG Repo, www.svgrepo.com, Generator: SVG Repo Mixer Tools -->
<svg width="800px" height="800px" viewBox="0 0 64 64" xmlns="http://www.w3.org/2000/svg">
<g id="a"/>
<g id="b"/>
<g id="c"/>
<g id="d"/>
<g id="e"/>
<g id="f"/>
<g id="g"/>
<g id="h"/>
<g id="i">
<path d="M32.92,6.1c-1.55,0-2.8,1.25-2.8,2.81,0,1.78-1.44,3.22-3.22,3.22h-1.72c-1,0-1.81,.81-1.81,1.81s.81,1.81,1.81,1.81h1.24c1,0,1.87,1.03,1.87,2.04v1.76l4.07,1.44,4.42-1.44v-2.59h2.78c1,0,1.81-.81,1.81-1.81s-.81-1.81-1.81-1.81h-2.42c-1,0-1.81-.81-1.81-1.81s.81-1.81,1.81-1.81h6.2c1,0,1.81-.81,1.81-1.81s-.81-1.81-1.81-1.81h-10.41Z" fill="#f0f4f6" fill-rule="evenodd"/>
<path d="M42.29,28.41c-.23,0-.46,.02-.68,.06l-1.71,.31-.49,.21c-4.48,4.96,9.39,17.11,9.39,17.11l2.62-8.16-2.25-6.02c-.24-.63-.72-1.14-1.34-1.41l-4.2-1.81c-.42-.18-.87-.28-1.33-.29Z" fill="#758797" fill-rule="evenodd"/>
<path d="M56.4,51.64l.17-8.87c.02-.98-.45-1.9-1.24-2.46l-2.82-1.99c-.75-.53-1.77-.49-2.47,.1l-1.54,1.29-1.03,10.54,8.94,1.38Z" fill="#8598ab" fill-rule="evenodd"/>
<path d="M52.48,49.47l-3.72-9.21c-.49-1.22-1.34-2.25-2.44-2.97l-3.86-2.54c-1.08-.71-1.82-1.82-2.04-3.09l-1.84-10.14c-.21-1.15-1.21-1.98-2.38-1.98h-7.34c-1.19,0-2.23,.8-2.54,1.95l-.73,2.68-1.13,4.16c-.35,1.23-1.07,2.32-2.07,3.12l-3.46,2.8c-1.03,.83-1.81,1.92-2.28,3.15l-.66,1.76,1.19,12.92,35.3-2.61Z" fill="#9dacb9" fill-rule="evenodd"/>
<path d="M18.79,40.75l2.87-1.04c.55-.2,1.16-.19,1.7,.04l2.88,1.2c.53,.22,.9,.69,1,1.25l.71,4.19-6.93,2.23s-3.47-5.55-2.23-7.87Z" fill="#758797" fill-rule="evenodd"/>
<path d="M13.29,37.87c-.4,.01-.77,.18-1.04,.47l-2.73,2.99c-.5,.54-.74,1.27-.67,2.01l.65,7.09,11.51-3.41-.62-4.32c-.11-.72-.54-1.35-1.17-1.71l-5.18-2.93c-.23-.13-.49-.19-.75-.19Z" fill="#8598ab" fill-rule="evenodd"/>
<path d="M32,46.3c-20.26,0-27,6.13-27,9.08,0,1.4,1.25,2.53,2.8,2.53H56.2c1.55,0,2.8-1.13,2.8-2.53,0-2.95-6.74-9.08-27-9.08Z" fill="#feccba" fill-rule="evenodd"/>
<path d="M50.63,6.1h3.23c1,0,1.81,.81,1.81,1.81s-.81,1.81-1.81,1.81h-3.23c-1,0-1.81-.81-1.81-1.81s.81-1.81,1.81-1.81Z" fill="#f0f4f6" fill-rule="evenodd"/>
<path d="M46.17,13.06c-1.15,0-2.08,.93-2.08,2.08s.93,2.08,2.08,2.08h2.68c.81,0,1.45,.65,1.45,1.46s-.65,1.46-1.45,1.46h-5.32c-1.15,0-2.08,.93-2.08,2.08s.93,2.08,2.08,2.08h13.39c1.15,0,2.08-.93,2.08-2.08s-.93-2.08-2.08-2.08h-1.65c-.81,0-1.46-.65-1.46-1.46s.65-1.46,1.46-1.46h.89c1.15,0,2.08-.93,2.08-2.08s-.93-2.08-2.08-2.08h-9.99Z" fill="#f0f4f6" fill-rule="evenodd"/>
<path d="M18.88,17.08c1.15,0,2.08,.93,2.08,2.08s-.93,2.08-2.08,2.08h-3.73c-.81,0-1.45,.65-1.45,1.46s.65,1.46,1.45,1.46h14.62c1.15,0,2.08,.93,2.08,2.08s-.93,2.08-2.08,2.08H7.08c-1.15,0-2.08-.93-2.08-2.08s.93-2.08,2.08-2.08h1.65c.81,0,1.46-.65,1.46-1.46s-.65-1.46-1.46-1.46h-.89c-1.15,0-2.08-.93-2.08-2.08s.93-2.08,2.08-2.08h11.04Z" fill="#f0f4f6" fill-rule="evenodd"/>
<path d="M51.3,6.1c1,0,1.81,.81,1.81,1.81s-.81,1.81-1.81,1.81h2.56c1,0,1.81-.81,1.81-1.81s-.81-1.81-1.81-1.81h-2.56Z" fill="#e2eef2" fill-rule="evenodd"/>
<circle cx="46.65" cy="53.9" fill="#fcbfad" r="1"/>
<circle cx="39.54" cy="51.03" fill="#fcbfad" r="1"/>
<circle cx="32.52" cy="54.02" fill="#fcbfad" r="1"/>
<circle cx="22.51" cy="51.84" fill="#fcbfad" r="1"/>
<circle cx="17.07" cy="53.06" fill="#fcbfad" r="1"/>
</g>
<g id="j"/>
<g id="k"/>
<g id="l"/>
<g id="m"/>
<g id="n"/>
<g id="o"/>
<g id="p"/>
<g id="q"/>
<g id="r"/>
<g id="s"/>
<g id="t"/>
<g id="u"/>
<g id="v"/>
<g id="w"/>
<g id="x"/>
<g id="y"/>
<g id="a`"/>
<g id="aa"/>
<g id="ab"/>
<g id="ac"/>
<g id="ad"/>
<g id="ae"/>
<g id="af"/>
<g id="ag"/>
<g id="ah"/>
<g id="ai"/>
<g id="aj"/>
<g id="ak"/>
<g id="al"/>
<g id="am"/>
<g id="an"/>
<g id="ao"/>
<g id="ap"/>
<g id="aq"/>
<g id="ar"/>
<g id="as"/>
<g id="at"/>
<g id="au"/>
<g id="av"/>
<g id="aw"/>
<g id="ax"/>
</svg>