<?xml version="1.0" encoding="utf-8"?>
<!-- Uploaded to: SVG Repo, www.svgrepo.com, Generator: SVG Repo Mixer Tools -->
<svg width="800px" height="800px" viewBox="0 0 1024 1024" class="icon"  version="1.1" xmlns="http://www.w3.org/2000/svg"><path d="M279.42912 886.74304v-0.04096l-3.47136 0.04096C164.33152 886.74304 73.6256 797.96224 71.71072 687.7184L71.68 684.1856C71.68 572.3136 163.14368 481.61792 275.968 481.61792c102.912 0 188.04736 75.4688 202.20928 173.62944h4.47488v-1.36192c0-127.32416 103.04512-230.77888 230.94272-232.83712l3.8912-0.03072C847.17568 421.0176 952.32 525.28128 952.32 653.8752c0 128.6144-105.14432 232.86784-234.83392 232.86784l2.60096-0.03072v0.03072H279.43936z" fill="#DFF1FB" /><path d="M147.88608 310.9376m42.3424 0l643.5328 0q42.3424 0 42.3424 42.3424l0-0.01024q0 42.3424-42.3424 42.3424l-643.5328 0q-42.3424 0-42.3424-42.3424l0 0.01024q0-42.3424 42.3424-42.3424Z" fill="#DFF1FB" /><path d="M478.12608 133.12m42.3424 0l254.02368 0q42.3424 0 42.3424 42.3424l0-0.01024q0 42.3424-42.3424 42.3424l-254.02368 0q-42.3424 0-42.3424-42.3424l0 0.01024q0-42.3424 42.3424-42.3424Z" fill="#FFFFFF" /><path d="M215.63392 133.12m42.3424 0l135.4752 0q42.3424 0 42.3424 42.3424l0-0.01024q0 42.3424-42.3424 42.3424l-135.4752 0q-42.3424 0-42.3424-42.3424l0 0.01024q0-42.3424 42.3424-42.3424Z" fill="#DFF1FB" /></svg>