<?xml version="1.0" encoding="utf-8"?>
<!-- Uploaded to: SVG Repo, www.svgrepo.com, Generator: SVG Repo Mixer Tools -->
<svg width="800px" height="800px" viewBox="0 0 1024 1024" class="icon"  version="1.1" xmlns="http://www.w3.org/2000/svg"><path d="M510.3616 681.472l2.17088 92.99968h83.51744a5.12 5.12 0 0 1 4.1984 8.04864L490.8544 939.4176a5.12 5.12 0 0 1-9.3184-2.82624l-2.19136-107.34592h-83.2512a5.12 5.12 0 0 1-4.07552-8.23296l109.16864-142.5408a5.12 5.12 0 0 1 9.18528 3.00032z" fill="#EE921C" /><path d="M508.01664 324.4544m-252.7744 0a252.7744 252.7744 0 1 0 505.5488 0 252.7744 252.7744 0 1 0-505.5488 0Z" fill="#F2FAFE" /><path d="M292.21888 691.39456l-0.01024-0.04096-3.33824 0.04096C181.4016 691.39456 94.0544 605.92128 92.19072 499.80416L92.16 496.31232c0-107.7248 88.064-195.05152 196.7104-195.05152 99.10272 0 181.0944 72.66304 194.72384 167.19872h4.31104v-1.32096c0-122.60352 99.2256-222.21824 222.40256-224.2048l3.7376-0.03072c124.88704 0 226.14016 100.39296 226.14016 224.23552S838.93248 691.4048 714.0352 691.4048l2.5088-0.03072v0.03072h-424.3456zM325.19168 736.58368a28.53888 28.53888 0 0 1 17.0496 36.57728l-30.6688 84.28544a28.53888 28.53888 0 0 1-53.63712-19.51744l30.67904-84.28544a28.53888 28.53888 0 0 1 36.57728-17.05984z" fill="#DFF1FB" /><path d="M689.769831 726.825092m26.817775 9.760871l0 0q26.817775 9.760872 17.056903 36.578647l-30.676526 84.283061q-9.760872 26.817775-36.578646 17.056903l0 0q-26.817775-9.760872-17.056904-36.578647l30.676526-84.283061q9.760872-26.817775 36.578647-17.056903Z" fill="#DFF1FB" /></svg>